<svg width="71" height="71" viewBox="0 0 71 71" fill="none" xmlns="http://www.w3.org/2000/svg">
<path d="M62.125 4.4375C63.3019 4.4375 64.4306 4.90502 65.2628 5.73721C66.095 6.56941 66.5625 7.6981 66.5625 8.875V62.125C66.5625 63.3019 66.095 64.4306 65.2628 65.2628C64.4306 66.095 63.3019 66.5625 62.125 66.5625H8.875C7.6981 66.5625 6.56941 66.095 5.73721 65.2628C4.90502 64.4306 4.4375 63.3019 4.4375 62.125V8.875C4.4375 7.6981 4.90502 6.56941 5.73721 5.73721C6.56941 4.90502 7.6981 4.4375 8.875 4.4375H62.125ZM8.875 0C6.5212 0 4.26381 0.935042 2.59943 2.59943C0.935042 4.26381 0 6.5212 0 8.875L0 62.125C0 64.4788 0.935042 66.7362 2.59943 68.4006C4.26381 70.065 6.5212 71 8.875 71H62.125C64.4788 71 66.7362 70.065 68.4006 68.4006C70.065 66.7362 71 64.4788 71 62.125V8.875C71 6.5212 70.065 4.26381 68.4006 2.59943C66.7362 0.935042 64.4788 0 62.125 0L8.875 0Z" fill="#B3B9F2"/>
<path d="M35.5 17.75C36.0884 17.75 36.6528 17.9838 37.0689 18.3999C37.485 18.816 37.7188 19.3803 37.7188 19.9688V33.2812H51.0312C51.6197 33.2812 52.184 33.515 52.6001 33.9311C53.0162 34.3472 53.25 34.9116 53.25 35.5C53.25 36.0884 53.0162 36.6528 52.6001 37.0689C52.184 37.485 51.6197 37.7188 51.0312 37.7188H37.7188V51.0312C37.7188 51.6197 37.485 52.184 37.0689 52.6001C36.6528 53.0162 36.0884 53.25 35.5 53.25C34.9116 53.25 34.3472 53.0162 33.9311 52.6001C33.515 52.184 33.2812 51.6197 33.2812 51.0312V37.7188H19.9688C19.3803 37.7188 18.816 37.485 18.3999 37.0689C17.9838 36.6528 17.75 36.0884 17.75 35.5C17.75 34.9116 17.9838 34.3472 18.3999 33.9311C18.816 33.515 19.3803 33.2812 19.9688 33.2812H33.2812V19.9688C33.2812 19.3803 33.515 18.816 33.9311 18.3999C34.3472 17.9838 34.9116 17.75 35.5 17.75Z" fill="#B3B9F2"/>
</svg>
