<svg width="37" height="38" viewBox="0 0 37 38" fill="none" xmlns="http://www.w3.org/2000/svg">
<path d="M31.8576 20.7164C31.934 20.1347 31.9751 19.5489 31.9804 18.9623C31.9751 18.3756 31.934 17.7898 31.8576 17.2081L35.6553 14.2349C35.8268 14.1039 35.944 13.9143 35.9844 13.7023C36.0249 13.4903 35.9858 13.2709 35.8746 13.0859L32.2786 6.85004C32.1745 6.663 32.0055 6.5205 31.8036 6.44942C31.6016 6.37834 31.3807 6.38357 31.1823 6.46413L26.7005 8.27088C25.7679 7.55913 24.7481 6.96964 23.6659 6.51676L22.9906 1.75432C22.9608 1.54358 22.8554 1.35086 22.694 1.21209C22.5326 1.07331 22.3263 0.997948 22.1135 1.00004H14.904C14.6912 0.997948 14.4849 1.07331 14.3235 1.21209C14.1622 1.35086 14.0568 1.54358 14.027 1.75432L13.3516 6.51676C12.268 6.96682 11.2479 7.55651 10.317 8.27088L5.81769 6.46413C5.61934 6.38357 5.39837 6.37834 5.19643 6.44942C4.99449 6.5205 4.82552 6.663 4.72137 6.85004L1.12542 13.0859C1.01421 13.2709 0.975097 13.4903 1.01555 13.7023C1.056 13.9143 1.17319 14.1039 1.34468 14.2349L5.13359 17.2081C5.05748 17.7898 5.01648 18.3756 5.0108 18.9623C5.01618 19.5489 5.05718 20.1347 5.13359 20.7164L1.34468 23.6896C1.17319 23.8206 1.056 24.0102 1.01555 24.2222C0.975097 24.4342 1.01421 24.6536 1.12542 24.8386L4.72137 31.0745C4.82552 31.2615 4.99449 31.404 5.19643 31.4751C5.39837 31.5462 5.61934 31.5409 5.81769 31.4604L10.2995 29.6536C11.2321 30.3654 12.2519 30.9549 13.3341 31.4078L14.0094 36.1702C14.0392 36.3809 14.1446 36.5737 14.306 36.7124C14.4674 36.8512 14.6737 36.9266 14.8865 36.9245H22.0784C22.2912 36.9266 22.4976 36.8512 22.6589 36.7124C22.8203 36.5737 22.9257 36.3809 22.9555 36.1702L23.6308 31.4078C24.7144 30.9577 25.7346 30.368 26.6654 29.6536L31.1472 31.4604C31.3456 31.5409 31.5665 31.5462 31.7685 31.4751C31.9704 31.404 32.1394 31.2615 32.2435 31.0745L35.8395 24.8386C35.9507 24.6536 35.9898 24.4342 35.9494 24.2222C35.9089 24.0102 35.7917 23.8206 35.6202 23.6896L31.8576 20.7164ZM18.5 25.2596C17.2541 25.2613 16.0358 24.8934 14.999 24.2025C13.9623 23.5116 13.1538 22.5287 12.6758 21.3782C12.1978 20.2277 12.0719 18.9612 12.3139 17.7391C12.5559 16.517 13.1549 15.3941 14.0353 14.5125C14.9156 13.6309 16.0377 13.0303 17.2595 12.7866C18.4813 12.5429 19.7479 12.6671 20.8991 13.1435C22.0503 13.6198 23.0343 14.427 23.7266 15.4628C24.419 16.4985 24.7885 17.7164 24.7885 18.9623C24.7897 19.7888 24.6279 20.6075 24.3124 21.3715C23.9969 22.1354 23.5338 22.8297 22.9498 23.4146C22.3657 23.9995 21.6721 24.4635 20.9085 24.78C20.145 25.0966 19.3266 25.2596 18.5 25.2596V25.2596Z" stroke="#F2F2F2" stroke-width="2" stroke-linecap="round" stroke-linejoin="round"/>
</svg>
