<svg width="35" height="28" viewBox="0 0 35 28" fill="none" xmlns="http://www.w3.org/2000/svg">
<path d="M33.8335 10.6944H32.6671V4.86109C32.6671 4.60324 32.5442 4.35596 32.3254 4.17363C32.1067 3.9913 31.81 3.88887 31.5006 3.88887H3.50553C3.22932 3.89263 2.96048 3.81456 2.74687 3.66857C2.53326 3.52258 2.38875 3.31814 2.33906 3.09165V2.74166C2.38875 2.51517 2.53326 2.31073 2.74687 2.16474C2.96048 2.01875 3.22932 1.94068 3.50553 1.94444H31.0107C31.3201 1.94444 31.6168 1.84201 31.8355 1.65968C32.0543 1.47735 32.1772 1.23007 32.1772 0.972218C32.1772 0.71437 32.0543 0.467083 31.8355 0.284756C31.6168 0.10243 31.3201 0 31.0107 0H3.50553C2.57743 0 1.68735 0.30729 1.03109 0.854268C0.374825 1.40125 0.00614053 2.14311 0.00614053 2.91666C-0.00204684 3.03322 -0.00204684 3.15009 0.00614053 3.26665V23.2652C0.0107192 23.7886 0.138961 24.3062 0.383544 24.7884C0.628126 25.2706 0.984259 25.7078 1.43161 26.0753C1.87896 26.4427 2.40876 26.7331 2.99076 26.9299C3.57277 27.1267 4.19558 27.226 4.82363 27.2221H31.5006C31.81 27.2221 32.1067 27.1197 32.3254 26.9374C32.5442 26.755 32.6671 26.5077 32.6671 26.2499V20.4166H33.8335C34.1429 20.4166 34.4396 20.3142 34.6584 20.1318C34.8771 19.9495 35 19.7022 35 19.4444V11.6666C35 11.4088 34.8771 11.1615 34.6584 10.9792C34.4396 10.7968 34.1429 10.6944 33.8335 10.6944ZM30.3342 25.2777H4.82363C4.17484 25.2829 3.54983 25.0744 3.08454 24.6975C2.61925 24.3206 2.35133 23.8059 2.33906 23.2652V5.71664C2.7177 5.8081 3.11168 5.8475 3.50553 5.83331H30.3342V10.6944H22.1689C20.6221 10.6944 19.1386 11.2066 18.0449 12.1182C16.9511 13.0298 16.3366 14.2663 16.3366 15.5555C16.3366 16.8447 16.9511 18.0812 18.0449 18.9928C19.1386 19.9044 20.6221 20.4166 22.1689 20.4166H30.3342V25.2777ZM32.6671 18.4721H22.1689C21.2408 18.4721 20.3507 18.1649 19.6945 17.6179C19.0382 17.0709 18.6695 16.329 18.6695 15.5555C18.6695 14.7819 19.0382 14.0401 19.6945 13.4931C20.3507 12.9461 21.2408 12.6388 22.1689 12.6388H32.6671V18.4721Z" fill="#F2F2F2"/>
</svg>
