<svg width="46" height="37" viewBox="0 0 46 37" fill="none" xmlns="http://www.w3.org/2000/svg">
<path d="M1 3.1875C1 2.60734 1.23047 2.05094 1.6407 1.6407C2.05094 1.23047 2.60734 1 3.1875 1H42.5625C43.1427 1 43.6991 1.23047 44.1093 1.6407C44.5195 2.05094 44.75 2.60734 44.75 3.1875V33.8125C44.75 34.3927 44.5195 34.9491 44.1093 35.3593C43.6991 35.7695 43.1427 36 42.5625 36H3.1875C2.60734 36 2.05094 35.7695 1.6407 35.3593C1.23047 34.9491 1 34.3927 1 33.8125V3.1875Z" stroke="#F2F2F2" stroke-width="2" stroke-linejoin="round"/>
<path d="M1 9.75H44.75" stroke="#F2F2F2" stroke-width="2" stroke-linecap="square" stroke-linejoin="round"/>
<path d="M1 3.1875V20.6875M26.1562 27.25H36H26.1562ZM44.75 3.1875V20.6875V3.1875Z" stroke="#F2F2F2" stroke-width="2" stroke-linecap="round" stroke-linejoin="round"/>
</svg>
