<svg width="47" height="37" viewBox="0 0 47 37" fill="none" xmlns="http://www.w3.org/2000/svg">
<path d="M44.5003 14.7499H43.0005V7.24998C43.0005 6.91846 42.8425 6.60051 42.5613 6.3661C42.28 6.13168 41.8985 5.99998 41.5008 5.99998H5.50711C5.15198 6.00481 4.80633 5.90443 4.53169 5.71673C4.25705 5.52903 4.07125 5.26618 4.00737 4.97498V4.52499C4.07125 4.23379 4.25705 3.97094 4.53169 3.78324C4.80633 3.59554 5.15198 3.49516 5.50711 3.49999H40.8709C41.2687 3.49999 41.6501 3.36829 41.9314 3.13387C42.2126 2.89946 42.3706 2.58151 42.3706 2.24999C42.3706 1.91848 42.2126 1.60053 41.9314 1.36612C41.6501 1.1317 41.2687 1 40.8709 1H5.50711C4.31384 1 3.16945 1.39509 2.32568 2.09835C1.48192 2.8016 1.00789 3.75543 1.00789 4.74999C0.997368 4.89986 0.997368 5.05011 1.00789 5.19998V30.9124C1.01378 31.5854 1.17866 32.2509 1.49313 32.8708C1.80759 33.4907 2.26548 34.0529 2.84064 34.5253C3.4158 34.9978 4.09698 35.3711 4.84527 35.6241C5.59356 35.8771 6.39431 36.0048 7.20181 35.9999H41.5008C41.8985 35.9999 42.28 35.8682 42.5613 35.6337C42.8425 35.3993 43.0005 35.0814 43.0005 34.7499V27.2499H44.5003C44.898 27.2499 45.2795 27.1182 45.5607 26.8838C45.842 26.6494 46 26.3314 46 25.9999V15.9999C46 15.6684 45.842 15.3505 45.5607 15.1161C45.2795 14.8816 44.898 14.7499 44.5003 14.7499ZM40.001 33.4999H7.20181C6.36766 33.5066 5.56406 33.2385 4.96584 32.7539C4.36761 32.2694 4.02314 31.6075 4.00737 30.9124V8.34997C4.49418 8.46756 5.00074 8.51822 5.50711 8.49997H40.001V14.7499H29.5029C27.5141 14.7499 25.6068 15.4084 24.2005 16.5805C22.7942 17.7526 22.0042 19.3423 22.0042 20.9999C22.0042 22.6575 22.7942 24.2472 24.2005 25.4193C25.6068 26.5914 27.5141 27.2499 29.5029 27.2499H40.001V33.4999ZM43.0005 24.7499H29.5029C28.3096 24.7499 27.1652 24.3548 26.3215 23.6516C25.4777 22.9483 25.0037 21.9945 25.0037 20.9999C25.0037 20.0054 25.4777 19.0515 26.3215 18.3483C27.1652 17.645 28.3096 17.2499 29.5029 17.2499H43.0005V24.7499Z" fill="#F2F2F2" stroke="black" stroke-width="0.5"/>
</svg>
