<svg width="43" height="35" viewBox="0 0 43 35" fill="none" xmlns="http://www.w3.org/2000/svg">
<path d="M27.3558 27.5973L27.3558 27.5973C27.7507 27.1501 28.2743 26.7746 28.8934 26.5117C29.5125 26.2487 30.2021 26.1092 30.9062 26.1092H37.625C38.555 26.1092 39.4733 25.7969 40.1727 25.2028C40.8771 24.6046 41.3125 23.7548 41.3125 22.8266V4.56532C41.3125 3.63711 40.8771 2.7873 40.1727 2.18905C39.4733 1.59502 38.555 1.28266 37.625 1.28266H5.375C4.44499 1.28266 3.52668 1.59502 2.82728 2.18905C2.12293 2.7873 1.6875 3.63711 1.6875 4.56532V22.8266C1.6875 23.7548 2.12293 24.6046 2.82728 25.2028C3.52668 25.7969 4.44499 26.1092 5.375 26.1092H12.0938C12.7979 26.1092 13.4875 26.2487 14.1066 26.5117C14.7257 26.7746 15.2493 27.1501 15.6442 27.5973L15.6442 27.5973L20.7505 33.3793L21.2896 33.9897C21.0778 33.969 20.8742 33.9172 20.689 33.8386C20.4431 33.7341 20.2441 33.5887 20.0996 33.425L20.0995 33.425L14.9933 27.6431C14.6372 27.2398 14.187 26.925 13.6865 26.7125C13.1861 26.4999 12.6413 26.3919 12.0938 26.3919H5.375C4.1667 26.3919 3.03429 25.9828 2.22167 25.2926C1.41401 24.6066 1 23.7146 1 22.8266V4.56532C1 3.67733 1.41401 2.78532 2.22167 2.09933C3.03429 1.40912 4.1667 1 5.375 1H37.625C38.8333 1 39.9657 1.40912 40.7783 2.09933C41.586 2.78532 42 3.67733 42 4.56532V22.8266C42 23.7146 41.586 24.6066 40.7783 25.2926C39.9657 25.9828 38.8333 26.3919 37.625 26.3919H30.9062C30.3587 26.3919 29.8139 26.4999 29.3135 26.7125C28.813 26.925 28.3628 27.2397 28.0067 27.643C28.0067 27.643 28.0067 27.643 28.0067 27.6431L22.9005 33.425L22.9004 33.425C22.7559 33.5887 22.5569 33.7341 22.311 33.8386C22.1258 33.9172 21.9222 33.969 21.7104 33.9897L22.2495 33.3793L27.3558 27.5973Z" fill="black" stroke="#F2F2F2" stroke-width="2"/>
<path d="M12.4375 13.6959C12.4375 13.9785 12.3066 14.2899 12.003 14.5478C11.6944 14.81 11.2455 14.9786 10.75 14.9786C10.2545 14.9786 9.80563 14.81 9.49702 14.5478C9.19336 14.2899 9.0625 13.9785 9.0625 13.6959C9.0625 13.4133 9.19336 13.1019 9.49702 12.844C9.80563 12.5819 10.2545 12.4133 10.75 12.4133C11.2455 12.4133 11.6944 12.5819 12.003 12.844L12.5607 12.1874L12.003 12.844C12.3066 13.1019 12.4375 13.4133 12.4375 13.6959ZM23.1875 13.6959C23.1875 13.9785 23.0566 14.2899 22.753 14.5478C22.4444 14.81 21.9955 14.9786 21.5 14.9786C21.0045 14.9786 20.5556 14.81 20.247 14.5478C19.9434 14.2899 19.8125 13.9785 19.8125 13.6959C19.8125 13.4133 19.9434 13.1019 20.247 12.844L19.608 12.0916L20.247 12.844C20.5556 12.5819 21.0045 12.4133 21.5 12.4133C21.9955 12.4133 22.4444 12.5819 22.753 12.844C23.0566 13.1019 23.1875 13.4133 23.1875 13.6959ZM33.9375 13.6959C33.9375 13.9785 33.8066 14.2899 33.503 14.5478C33.1944 14.81 32.7455 14.9786 32.25 14.9786C31.7545 14.9786 31.3056 14.81 30.997 14.5478C30.6934 14.2899 30.5625 13.9785 30.5625 13.6959C30.5625 13.4133 30.6934 13.1019 30.997 12.844C31.3056 12.5819 31.7545 12.4133 32.25 12.4133C32.7455 12.4133 33.1944 12.5819 33.503 12.844L34.1455 12.0876L33.503 12.844C33.8066 13.1019 33.9375 13.4133 33.9375 13.6959Z" fill="black" stroke="#F2F2F2" stroke-width="2"/>
</svg>
