<svg width="35" height="29" viewBox="0 0 35 29" fill="none" xmlns="http://www.w3.org/2000/svg">
<path d="M30.625 1.8125C31.2052 1.8125 31.7616 2.00346 32.1718 2.34337C32.582 2.68328 32.8125 3.1443 32.8125 3.625V18.125C32.8125 18.6057 32.582 19.0667 32.1718 19.4066C31.7616 19.7465 31.2052 19.9375 30.625 19.9375H25.1562C24.4771 19.9375 23.8072 20.0685 23.1997 20.3202C22.5922 20.5719 22.0638 20.9373 21.6562 21.3875L17.5 25.9786L13.3437 21.3875C12.9362 20.9373 12.4078 20.5719 11.8003 20.3202C11.1928 20.0685 10.5229 19.9375 9.84375 19.9375H4.375C3.79484 19.9375 3.23844 19.7465 2.8282 19.4066C2.41797 19.0667 2.1875 18.6057 2.1875 18.125V3.625C2.1875 3.1443 2.41797 2.68328 2.8282 2.34337C3.23844 2.00346 3.79484 1.8125 4.375 1.8125H30.625ZM4.375 0C3.21468 0 2.10188 0.381919 1.28141 1.06174C0.460936 1.74156 0 2.66359 0 3.625L0 18.125C0 19.0864 0.460936 20.0084 1.28141 20.6883C2.10188 21.3681 3.21468 21.75 4.375 21.75H9.84375C10.1833 21.75 10.5183 21.8155 10.822 21.9414C11.1258 22.0672 11.39 22.2499 11.5938 22.475L15.75 27.0661C15.9538 27.2912 16.218 27.4739 16.5217 27.5997C16.8255 27.7256 17.1604 27.7911 17.5 27.7911C17.8396 27.7911 18.1745 27.7256 18.4783 27.5997C18.782 27.4739 19.0462 27.2912 19.25 27.0661L23.4062 22.475C23.61 22.2499 23.8742 22.0672 24.178 21.9414C24.4817 21.8155 24.8167 21.75 25.1562 21.75H30.625C31.7853 21.75 32.8981 21.3681 33.7186 20.6883C34.5391 20.0084 35 19.0864 35 18.125V3.625C35 2.66359 34.5391 1.74156 33.7186 1.06174C32.8981 0.381919 31.7853 0 30.625 0L4.375 0Z" fill="#F2F2F2"/>
<path d="M10.9375 10.875C10.9375 11.3557 10.707 11.8167 10.2968 12.1566C9.88656 12.4965 9.33016 12.6875 8.75 12.6875C8.16984 12.6875 7.61344 12.4965 7.2032 12.1566C6.79297 11.8167 6.5625 11.3557 6.5625 10.875C6.5625 10.3943 6.79297 9.93328 7.2032 9.59337C7.61344 9.25346 8.16984 9.0625 8.75 9.0625C9.33016 9.0625 9.88656 9.25346 10.2968 9.59337C10.707 9.93328 10.9375 10.3943 10.9375 10.875V10.875ZM19.6875 10.875C19.6875 11.3557 19.457 11.8167 19.0468 12.1566C18.6366 12.4965 18.0802 12.6875 17.5 12.6875C16.9198 12.6875 16.3634 12.4965 15.9532 12.1566C15.543 11.8167 15.3125 11.3557 15.3125 10.875C15.3125 10.3943 15.543 9.93328 15.9532 9.59337C16.3634 9.25346 16.9198 9.0625 17.5 9.0625C18.0802 9.0625 18.6366 9.25346 19.0468 9.59337C19.457 9.93328 19.6875 10.3943 19.6875 10.875ZM28.4375 10.875C28.4375 11.3557 28.207 11.8167 27.7968 12.1566C27.3866 12.4965 26.8302 12.6875 26.25 12.6875C25.6698 12.6875 25.1134 12.4965 24.7032 12.1566C24.293 11.8167 24.0625 11.3557 24.0625 10.875C24.0625 10.3943 24.293 9.93328 24.7032 9.59337C25.1134 9.25346 25.6698 9.0625 26.25 9.0625C26.8302 9.0625 27.3866 9.25346 27.7968 9.59337C28.207 9.93328 28.4375 10.3943 28.4375 10.875Z" fill="#F2F2F2"/>
</svg>
