<svg width="40" height="27" viewBox="0 0 40 27" fill="none" xmlns="http://www.w3.org/2000/svg">
<g clip-path="url(#clip0_18_183)">
<path d="M36 14.6667V24C36 24.7072 35.5786 25.3855 34.8284 25.8856C34.0783 26.3857 33.0609 26.6667 32 26.6667C30.9391 26.6667 29.9217 26.3857 29.1716 25.8856C28.4214 25.3855 28 24.7072 28 24V17.3333H24V4C24 2.93913 24.6321 1.92172 25.7574 1.17157C26.8826 0.421427 28.4087 0 30 0L36 0V14.6667ZM8 13.3333C6.93913 13.3333 5.92172 13.0524 5.17157 12.5523C4.42143 12.0522 4 11.3739 4 10.6667V1.33333C4 0.979711 4.21071 0.640573 4.58579 0.390524C4.96086 0.140476 5.46957 0 6 0C6.53043 0 7.03914 0.140476 7.41421 0.390524C7.78929 0.640573 8 0.979711 8 1.33333V6.66667H10V1.33333C10 0.979711 10.2107 0.640573 10.5858 0.390524C10.9609 0.140476 11.4696 0 12 0C12.5304 0 13.0391 0.140476 13.4142 0.390524C13.7893 0.640573 14 0.979711 14 1.33333V6.66667H16V1.33333C16 0.979711 16.2107 0.640573 16.5858 0.390524C16.9609 0.140476 17.4696 0 18 0C18.5304 0 19.0391 0.140476 19.4142 0.390524C19.7893 0.640573 20 0.979711 20 1.33333V10.6667C20 11.3739 19.5786 12.0522 18.8284 12.5523C18.0783 13.0524 17.0609 13.3333 16 13.3333V24C16 24.7072 15.5786 25.3855 14.8284 25.8856C14.0783 26.3857 13.0609 26.6667 12 26.6667C10.9391 26.6667 9.92172 26.3857 9.17157 25.8856C8.42143 25.3855 8 24.7072 8 24V13.3333Z" fill="white"/>
</g>
<defs>
<clipPath id="clip0_18_183">
<rect width="40" height="26.6667" fill="white"/>
</clipPath>
</defs>
</svg>
