<svg width="30" height="20" viewBox="0 0 30 20" fill="none" xmlns="http://www.w3.org/2000/svg">
<path d="M27 11V18C27 18.5304 26.6839 19.0391 26.1213 19.4142C25.5587 19.7893 24.7956 20 24 20C23.2044 20 22.4413 19.7893 21.8787 19.4142C21.3161 19.0391 21 18.5304 21 18V13H18V3C18 2.20435 18.4741 1.44129 19.318 0.87868C20.1619 0.31607 21.3065 0 22.5 0L27 0V11ZM6 10C5.20435 10 4.44129 9.78929 3.87868 9.41421C3.31607 9.03914 3 8.53043 3 8V1C3 0.734784 3.15804 0.48043 3.43934 0.292893C3.72064 0.105357 4.10218 0 4.5 0C4.89782 0 5.27936 0.105357 5.56066 0.292893C5.84196 0.48043 6 0.734784 6 1V5H7.5V1C7.5 0.734784 7.65804 0.48043 7.93934 0.292893C8.22064 0.105357 8.60218 0 9 0C9.39782 0 9.77936 0.105357 10.0607 0.292893C10.342 0.48043 10.5 0.734784 10.5 1V5H12V1C12 0.734784 12.158 0.48043 12.4393 0.292893C12.7206 0.105357 13.1022 0 13.5 0C13.8978 0 14.2794 0.105357 14.5607 0.292893C14.842 0.48043 15 0.734784 15 1V8C15 8.53043 14.6839 9.03914 14.1213 9.41421C13.5587 9.78929 12.7956 10 12 10V18C12 18.5304 11.6839 19.0391 11.1213 19.4142C10.5587 19.7893 9.79565 20 9 20C8.20435 20 7.44129 19.7893 6.87868 19.4142C6.31607 19.0391 6 18.5304 6 18V10Z" fill="#363636"/>
</svg>
