<svg width="36" height="35" viewBox="0 0 36 35" fill="none" xmlns="http://www.w3.org/2000/svg">
<path d="M33.832 18.7359L33.8351 18.7393C33.9326 18.8467 33.9968 18.9802 34.0198 19.1235C34.0429 19.2668 34.0237 19.4136 33.9647 19.5462C33.9057 19.6788 33.8093 19.7913 33.6875 19.8701C33.5656 19.9489 33.4235 19.9905 33.2784 19.9898H33.2741H29.7716H28.7716V20.9898V33.2487C28.7716 33.448 28.6924 33.6391 28.5515 33.78C28.4106 33.9208 28.2195 34 28.0203 34H22.7665C22.5672 34 22.3761 33.9208 22.2353 33.78C22.0944 33.6391 22.0152 33.448 22.0152 33.2487V26.2437V25.2437H21.0152H14.0101H13.0101V26.2437V33.2487C13.0101 33.448 12.931 33.6391 12.7901 33.78C12.6492 33.9208 12.4581 34 12.2589 34H7.00505C6.8058 34 6.61471 33.9208 6.47383 33.78C6.33293 33.6391 6.25378 33.448 6.25378 33.2487V20.9898V19.9898H5.25378H1.75124C1.45336 19.9898 1.1858 19.8152 1.06657 19.5461L1.06517 19.543C1.00601 19.4108 0.986549 19.2641 1.00916 19.121C1.03178 18.9779 1.09549 18.8444 1.19255 18.7368L1.19334 18.7359L16.9548 1.22324L16.9555 1.22246C17.2219 0.925846 17.8035 0.925846 18.0699 1.22246L18.0706 1.22324L33.832 18.7359Z" fill="#F2F2F2" stroke="#F2F2F2" stroke-width="2"/>
</svg>
