<svg width="27" height="35" viewBox="0 0 27 35" fill="none" xmlns="http://www.w3.org/2000/svg">
<path d="M5.46875 26.25C5.17867 26.25 4.90047 26.1348 4.69535 25.9296C4.49023 25.7245 4.375 25.4463 4.375 25.1562V20.7812C4.375 20.4912 4.49023 20.213 4.69535 20.0079C4.90047 19.8027 5.17867 19.6875 5.46875 19.6875H7.65625C7.94633 19.6875 8.22453 19.8027 8.42965 20.0079C8.63477 20.213 8.75 20.4912 8.75 20.7812V25.1562C8.75 25.4463 8.63477 25.7245 8.42965 25.9296C8.22453 26.1348 7.94633 26.25 7.65625 26.25H5.46875ZM12.0312 26.25C11.7412 26.25 11.463 26.1348 11.2579 25.9296C11.0527 25.7245 10.9375 25.4463 10.9375 25.1562V16.4062C10.9375 16.1162 11.0527 15.838 11.2579 15.6329C11.463 15.4277 11.7412 15.3125 12.0312 15.3125H14.2188C14.5088 15.3125 14.787 15.4277 14.9921 15.6329C15.1973 15.838 15.3125 16.1162 15.3125 16.4062V25.1562C15.3125 25.4463 15.1973 25.7245 14.9921 25.9296C14.787 26.1348 14.5088 26.25 14.2188 26.25H12.0312ZM18.5938 26.25C18.3037 26.25 18.0255 26.1348 17.8204 25.9296C17.6152 25.7245 17.5 25.4463 17.5 25.1562V12.0312C17.5 11.7412 17.6152 11.463 17.8204 11.2579C18.0255 11.0527 18.3037 10.9375 18.5938 10.9375H20.7812C21.0713 10.9375 21.3495 11.0527 21.5546 11.2579C21.7598 11.463 21.875 11.7412 21.875 12.0312V25.1562C21.875 25.4463 21.7598 25.7245 21.5546 25.9296C21.3495 26.1348 21.0713 26.25 20.7812 26.25H18.5938Z" fill="#F2F2F2"/>
<path d="M4.375 0C3.21468 0 2.10188 0.460936 1.28141 1.28141C0.460936 2.10188 0 3.21468 0 4.375V30.625C0 31.7853 0.460936 32.8981 1.28141 33.7186C2.10188 34.5391 3.21468 35 4.375 35H21.875C23.0353 35 24.1481 34.5391 24.9686 33.7186C25.7891 32.8981 26.25 31.7853 26.25 30.625V4.375C26.25 3.21468 25.7891 2.10188 24.9686 1.28141C24.1481 0.460936 23.0353 0 21.875 0L4.375 0ZM4.375 2.1875H21.875C22.4552 2.1875 23.0116 2.41797 23.4218 2.8282C23.832 3.23844 24.0625 3.79484 24.0625 4.375V30.625C24.0625 31.2052 23.832 31.7616 23.4218 32.1718C23.0116 32.582 22.4552 32.8125 21.875 32.8125H4.375C3.79484 32.8125 3.23844 32.582 2.8282 32.1718C2.41797 31.7616 2.1875 31.2052 2.1875 30.625V4.375C2.1875 3.79484 2.41797 3.23844 2.8282 2.8282C3.23844 2.41797 3.79484 2.1875 4.375 2.1875V2.1875Z" fill="#F2F2F2"/>
</svg>
