<svg width="35" height="47" viewBox="0 0 35 47" fill="none" xmlns="http://www.w3.org/2000/svg">
<path d="M7.29134 35C6.90457 35 6.53363 34.8464 6.26014 34.5729C5.98665 34.2994 5.83301 33.9284 5.83301 33.5417V27.7083C5.83301 27.3216 5.98665 26.9506 6.26014 26.6771C6.53363 26.4037 6.90457 26.25 7.29134 26.25H10.208C10.5948 26.25 10.9657 26.4037 11.2392 26.6771C11.5127 26.9506 11.6663 27.3216 11.6663 27.7083V33.5417C11.6663 33.9284 11.5127 34.2994 11.2392 34.5729C10.9657 34.8464 10.5948 35 10.208 35H7.29134ZM16.0413 35C15.6546 35 15.2836 34.8464 15.0101 34.5729C14.7367 34.2994 14.583 33.9284 14.583 33.5417V21.875C14.583 21.4882 14.7367 21.1173 15.0101 20.8438C15.2836 20.5703 15.6546 20.4167 16.0413 20.4167H18.958C19.3448 20.4167 19.7157 20.5703 19.9892 20.8438C20.2627 21.1173 20.4163 21.4882 20.4163 21.875V33.5417C20.4163 33.9284 20.2627 34.2994 19.9892 34.5729C19.7157 34.8464 19.3448 35 18.958 35H16.0413ZM24.7913 35C24.4046 35 24.0336 34.8464 23.7601 34.5729C23.4867 34.2994 23.333 33.9284 23.333 33.5417V16.0417C23.333 15.6549 23.4867 15.284 23.7601 15.0105C24.0336 14.737 24.4046 14.5833 24.7913 14.5833H27.708C28.0948 14.5833 28.4657 14.737 28.7392 15.0105C29.0127 15.284 29.1663 15.6549 29.1663 16.0417V33.5417C29.1663 33.9284 29.0127 34.2994 28.7392 34.5729C28.4657 34.8464 28.0948 35 27.708 35H24.7913Z" fill="#F2F2F2"/>
<path d="M5.83333 0C4.28624 0 2.80251 0.614582 1.70854 1.70854C0.614581 2.80251 0 4.28624 0 5.83333V40.8333C0 42.3804 0.614581 43.8642 1.70854 44.9581C2.80251 46.0521 4.28624 46.6667 5.83333 46.6667H29.1667C30.7138 46.6667 32.1975 46.0521 33.2915 44.9581C34.3854 43.8642 35 42.3804 35 40.8333V5.83333C35 4.28624 34.3854 2.80251 33.2915 1.70854C32.1975 0.614582 30.7138 0 29.1667 0L5.83333 0ZM5.83333 2.91667H29.1667C29.9402 2.91667 30.6821 3.22396 31.2291 3.77094C31.776 4.31792 32.0833 5.05979 32.0833 5.83333V40.8333C32.0833 41.6069 31.776 42.3487 31.2291 42.8957C30.6821 43.4427 29.9402 43.75 29.1667 43.75H5.83333C5.05979 43.75 4.31792 43.4427 3.77094 42.8957C3.22396 42.3487 2.91667 41.6069 2.91667 40.8333V5.83333C2.91667 5.05979 3.22396 4.31792 3.77094 3.77094C4.31792 3.22396 5.05979 2.91667 5.83333 2.91667Z" fill="#F2F2F2"/>
</svg>
