<svg width="35" height="32" viewBox="0 0 35 32" fill="none" xmlns="http://www.w3.org/2000/svg">
<path d="M8.5 14V14.25H8.75H24.25V17.25H8.75H8.5V17.5V22.2298L0.400195 15.75L8.5 9.27016V14Z" fill="#F2F2F2" stroke="black" stroke-width="0.5"/>
<path d="M15.75 3.25H15.5V3.5V10.25H12.5V3.5C12.5 1.70782 13.9578 0.25 15.75 0.25H31.5C33.2922 0.25 34.75 1.70782 34.75 3.5V28C34.75 29.7922 33.2922 31.25 31.5 31.25H15.75C13.9578 31.25 12.5 29.7922 12.5 28V21.25H15.5V28V28.25H15.75H31.5H31.75V28V3.5V3.25H31.5H15.75Z" fill="#F2F2F2" stroke="black" stroke-width="0.5"/>
</svg>
