<svg width="30" height="29" viewBox="0 0 30 29" fill="none" xmlns="http://www.w3.org/2000/svg">
<path d="M26.25 7.2754C26.2538 7.09898 26.2413 5.50519 24.625 3.9706C23.0338 2.46019 21.4288 2.41669 21.25 2.41669H8.745C8.44625 2.41669 6.87875 2.49281 5.36 3.98994C3.795 5.53177 3.75 7.07965 3.75 7.25002V10.875H2.5V14.5H3.75V21.75C3.75 22.6369 4.2575 23.4091 5 23.8296V25.375C5 25.6955 5.1317 26.0028 5.36612 26.2294C5.60054 26.456 5.91848 26.5834 6.25 26.5834H7.5C7.83152 26.5834 8.14946 26.456 8.38388 26.2294C8.6183 26.0028 8.75 25.6955 8.75 25.375V24.1667H21.25V25.375C21.25 25.6955 21.3817 26.0028 21.6161 26.2294C21.8505 26.456 22.1685 26.5834 22.5 26.5834H23.75C24.0815 26.5834 24.3995 26.456 24.6339 26.2294C24.8683 26.0028 25 25.6955 25 25.375V23.832C25.3792 23.6217 25.6945 23.3186 25.9139 22.9531C26.1334 22.5876 26.2493 22.1726 26.25 21.75V14.5H27.5V10.875H26.25V7.2754ZM11.25 4.83335H18.75V7.25002H11.25V4.83335ZM8.125 21.75C7.62755 21.7499 7.15055 21.5587 6.79892 21.2185C6.44729 20.8784 6.24983 20.4172 6.25 19.9363C6.25017 19.4554 6.44793 18.9943 6.7998 18.6544C7.15166 18.3145 7.6288 18.1237 8.12625 18.1238C8.6237 18.124 9.1007 18.3151 9.45233 18.6553C9.80396 18.9954 10.0014 19.4567 10.0013 19.9375C10.0011 20.4184 9.80332 20.8795 9.45145 21.2194C9.09958 21.5593 8.62245 21.7502 8.125 21.75V21.75ZM13.75 15.7084H6.25V9.66669H13.75V15.7084ZM21.875 21.75C21.3776 21.7499 20.9005 21.5587 20.5489 21.2185C20.1973 20.8784 19.9998 20.4172 20 19.9363C20.0002 19.4554 20.1979 18.9943 20.5498 18.6544C20.9017 18.3145 21.3788 18.1237 21.8762 18.1238C22.3737 18.124 22.8507 18.3151 23.2023 18.6553C23.554 18.9954 23.7514 19.4567 23.7512 19.9375C23.7511 20.4184 23.5533 20.8795 23.2015 21.2194C22.8496 21.5593 22.3724 21.7502 21.875 21.75V21.75ZM23.75 15.7084H16.25V9.66669H23.75V15.7084Z" fill="white"/>
</svg>
